<?xml version="1.0" encoding="utf-8"?>
<!-- Generator: Adobe Illustrator 15.1.0, SVG Export Plug-In . SVG Version: 6.00 Build 0)  -->
<!DOCTYPE svg PUBLIC "-//W3C//DTD SVG 1.1//EN" "http://www.w3.org/Graphics/SVG/1.1/DTD/svg11.dtd">
<!--suppress XmlHighlighting -->
<svg version="1.1" id="Слой_1" xmlns="http://www.w3.org/2000/svg"  x="0px" y="0px"
	 width="608.97px" height="197.596px" viewBox="0 0 608.97 197.596" enable-background="new 0 0 608.97 197.596"
	 xml:space="preserve">
<g>
	<path fill="#F26724" d="M124.293,8.013v115.188H93.699v-15.396l-55.248,0l31.063-28.266h24.186V48.94L8.285,125.902V85.257
		L93.617,8.013H124.293z"/>
	<path fill="#F26724" d="M198.113,35.649c-7.06,1.155-12.801,4.464-17.211,9.913c-4.422,5.468-6.622,12.1-6.622,19.889
		c0,8.015,3.066,15.042,9.206,21.072c6.126,6.038,13.266,9.043,21.38,9.043V8.013h34.062c15.348,0,28.803,5.794,40.368,17.373
		c11.563,11.561,17.345,25.03,17.345,40.388c0,15.668-5.291,29.162-15.86,40.474c-10.574,11.301-23.437,16.953-38.567,16.953V95.566
		c7.053-1.142,12.8-4.452,17.215-9.901c4.413-5.458,6.624-12.099,6.624-19.903c0-8.11-3.049-15.151-9.136-21.129
		c-6.083-5.986-13.242-8.984-21.462-8.984v59.832v27.72h-34.059c-15.352,0-28.806-5.78-40.362-17.352
		c-11.572-11.566-17.347-25.025-17.347-40.398c0-15.653,5.288-29.146,15.861-40.462c10.578-11.312,23.428-16.977,38.565-16.977
		V35.649z"/>
	<rect x="314.051" y="8.047" fill="#F26724" width="30.595" height="115.221"/>
	<polygon fill="#F26724" points="432.944,8.048 432.944,51.95 393.917,51.95 393.917,8.048 363.324,8.048 363.324,123.268
		393.917,123.268 393.917,79.594 432.944,79.594 432.944,123.268 463.525,123.268 463.525,8.048 	"/>
	<path fill="#F26724" d="M504.171,8.013l85.344,77.244v40.646l-85.43-76.961v30.598h24.189l31.073,28.267h-55.263v15.396h-30.589
		V8.013H504.171z"/>
	<path fill="#F26724" d="M504.171,8.013l85.344,77.244v40.646l-85.43-76.961v30.598h24.189l31.073,28.267h-55.263v15.396h-30.589
		V8.013H504.171z"/>
</g>
<g>
	<path fill="#008281" d="M163.206,141.956c-9.463,0-17.753,1.53-24.638,4.546c-7.689,3.369-11.59,7.738-11.59,12.99
		c0,3.493,1.871,6.695,5.563,9.514c3.224,2.466,7.604,4.45,13.019,5.893c5.287,1.414,11.053,2.128,17.136,2.128h0.938
		c6.312,0,12.255-0.741,17.658-2.205l2.204-0.595v-7.676l-3.837,1.15c-5.042,1.511-10.574,2.277-16.453,2.277
		c-7.895,0-14.715-1.254-20.272-3.721c-3.275-1.456-7.18-3.812-7.18-6.787c0-2.965,3.9-5.315,7.177-6.762
		c5.557-2.458,12.381-3.704,20.275-3.704c5.875,0,11.408,0.766,16.453,2.279l3.837,1.146v-7.705l-2.244-0.574
		C175.578,142.695,169.51,141.956,163.206,141.956z"/>
	<rect x="205.881" y="142.518" fill="#008281" width="8.775" height="34.096"/>
	<polygon fill="#008281" points="252.896,156.967 290.56,142.518 270.504,142.518 247.014,151.486 247.014,142.518 238.323,142.518
		238.323,176.614 247.098,176.614 247.098,162.639 277.563,176.614 295.572,176.614 	"/>
	<path fill="#008281" d="M327.592,156.197c-1.163-0.635-2.433-1.186-3.804-1.663c0.958-1.126,1.44-2.342,1.44-3.634
		c0-1.993-0.972-4.765-5.611-6.644c-2.851-1.153-6.35-1.739-10.411-1.739H303.5v34.096h5.706c6.289,0,11.755-0.968,16.256-2.883
		c5.331-2.265,8.039-5.286,8.039-8.971C333.501,162.32,332.475,158.851,327.592,156.197z M312.188,149.673
		c1.235,0.16,2.345,0.454,3.319,0.882c0.294,0.128,0.521,0.246,0.695,0.349c-0.191,0.124-0.452,0.267-0.798,0.426
		c-0.959,0.449-2.035,0.76-3.217,0.933V149.673z M312.188,169.535v-10.072c3.521,0.206,6.603,0.894,9.178,2.054
		c2.209,0.995,3.527,2.102,3.527,2.963s-1.333,1.976-3.57,2.982C318.731,168.632,315.666,169.324,312.188,169.535z"/>
	<polygon fill="#008281" points="352.903,142.518 352.903,176.614 381.796,176.614 381.796,169.564 361.677,169.564
		361.677,165.961 378.473,165.961 378.473,158.912 361.677,158.912 361.677,149.568 381.796,149.568 381.796,142.518 	"/>
	<polygon fill="#008281" points="431.287,140.843 391.749,176.614 403.366,176.614 431.036,151.579 458.868,176.614 470.82,176.614
			"/>
</g>
</svg>
